P3
16 16
255
20 15 15  20 15 15  20 15 15  20 15 15  20 15 15  20 15 15  20 15 15  20 15 15  20 15 15  20 15 15  20 15 15  20 15 15  20 15 15  20 15 15  20 15 15  20 15 15
20 15 15  60 35 30  60 35 30  60 35 30  60 35 30  60 35 30  60 35 30  60 35 30  60 35 30  60 35 30  60 35 30  60 35 30  60 35 30  60 35 30  60 35 30  20 15 15
20 15 15  60 35 30  90 55 40  90 55 40  90 55 40  90 55 40  90 55 40  90 55 40  90 55 40  90 55 40  90 55 40  90 55 40  90 55 40  90 55 40  60 35 30  20 15 15
20 15 15  60 35 30  90 55 40  120 75 55  120 75 55  120 75 55  120 75 55  120 75 55  120 75 55  120 75 55  120 75 55  120 75 55  120 75 55  90 55 40  60 35 30  20 15 15
20 15 15  60 35 30  90 55 40  120 75 55  140 95 70  140 95 70  140 95 70  140 95 70  140 95 70  140 95 70  140 95 70  140 95 70  120 75 55  90 55 40  60 35 30  20 15 15
20 15 15  60 35 30  90 55 40  120 75 55  140 95 70  160 115 85  160 115 85  160 115 85  160 115 85  160 115 85  160 115 85  140 95 70  120 75 55  90 55 40  60 35 30  20 15 15
20 15 15  60 35 30  90 55 40  120 75 55  140 95 70  160 115 85  170 125 95  170 125 95  170 125 95  170 125 95  160 115 85  140 95 70  120 75 55  90 55 40  60 35 30  20 15 15
20 15 15  60 35 30  90 55 40  120 75 55  140 95 70  160 115 85  170 125 95  180 145 110  180 145 110  170 125 95  160 115 85  140 95 70  120 75 55  90 55 40  60 35 30  20 15 15
20 15 15  60 35 30  90 55 40  120 75 55  140 95 70  160 115 85  170 125 95  180 145 110  180 145 110  170 125 95  160 115 85  140 95 70  120 75 55  90 55 40  60 35 30  20 15 15
20 15 15  60 35 30  90 55 40  120 75 55  140 95 70  160 115 85  170 125 95  170 125 95  170 125 95  170 125 95  160 115 85  140 95 70  120 75 55  90 55 40  60 35 30  20 15 15
20 15 15  60 35 30  90 55 40  120 75 55  140 95 70  160 115 85  160 115 85  160 115 85  160 115 85  160 115 85  160 115 85  140 95 70  120 75 55  90 55 40  60 35 30  20 15 15
20 15 15  60 35 30  90 55 40  120 75 55  140 95 70  140 95 70  140 95 70  140 95 70  140 95 70  140 95 70  140 95 70  140 95 70  120 75 55  90 55 40  60 35 30  20 15 15
20 15 15  60 35 30  90 55 40  120 75 55  120 75 55  120 75 55  120 75 55  120 75 55  120 75 55  120 75 55  120 75 55  120 75 55  120 75 55  90 55 40  60 35 30  20 15 15
20 15 15  60 35 30  90 55 40  90 55 40  90 55 40  90 55 40  90 55 40  90 55 40  90 55 40  90 55 40  90 55 40  90 55 40  90 55 40  90 55 40  60 35 30  20 15 15
20 15 15  60 35 30  60 35 30  60 35 30  60 35 30  60 35 30  60 35 30  60 35 30  60 35 30  60 35 30  60 35 30  60 35 30  60 35 30  60 35 30  60 35 30  20 15 15
20 15 15  20 15 15  20 15 15  20 15 15  20 15 15  20 15 15  20 15 15  20 15 15  20 15 15  20 15 15  20 15 15  20 15 15  20 15 15  20 15 15  20 15 15  20 15 15
