P3
16 16
255
25 20 25  25 20 25  25 20 25  25 20 25  25 20 25  25 20 25  25 20 25  25 20 25  25 20 25  25 20 25  25 20 25  25 20 25  25 20 25  25 20 25  25 20 25  25 20 25
25 20 25  80 60 85  80 60 85  80 60 85  80 60 85  80 60 85  80 60 85  80 60 85  80 60 85  80 60 85  80 60 85  80 60 85  80 60 85  80 60 85  80 60 85  25 20 25
25 20 25  80 60 85  120 90 120  120 90 120  120 90 120  120 90 120  120 90 120  120 90 120  120 90 120  120 90 120  120 90 120  120 90 120  120 90 120  120 90 120  80 60 85  25 20 25
25 20 25  80 60 85  120 90 120  160 130 160  160 130 160  160 130 160  160 130 160  160 130 160  160 130 160  160 130 160  160 130 160  160 130 160  160 130 160  120 90 120  80 60 85  25 20 25
25 20 25  80 60 85  120 90 120  160 130 160  190 150 190  190 150 190  190 150 190  190 150 190  190 150 190  190 150 190  190 150 190  190 150 190  160 130 160  120 90 120  80 60 85  25 20 25
25 20 25  80 60 85  120 90 120  160 130 160  190 150 190  210 175 210  210 175 210  210 175 210  210 175 210  210 175 210  210 175 210  190 150 190  160 130 160  120 90 120  80 60 85  25 20 25
25 20 25  80 60 85  120 90 120  160 130 160  190 150 190  210 175 210  220 190 220  220 190 220  220 190 220  220 190 220  210 175 210  190 150 190  160 130 160  120 90 120  80 60 85  25 20 25
25 20 25  80 60 85  120 90 120  160 130 160  190 150 190  210 175 210  220 190 220  230 210 230  230 210 230  220 190 220  210 175 210  190 150 190  160 130 160  120 90 120  80 60 85  25 20 25
25 20 25  80 60 85  120 90 120  160 130 160  190 150 190  210 175 210  220 190 220  230 210 230  230 210 230  220 190 220  210 175 210  190 150 190  160 130 160  120 90 120  80 60 85  25 20 25
25 20 25  80 60 85  120 90 120  160 130 160  190 150 190  210 175 210  220 190 220  220 190 220  220 190 220  220 190 220  210 175 210  190 150 190  160 130 160  120 90 120  80 60 85  25 20 25
25 20 25  80 60 85  120 90 120  160 130 160  190 150 190  210 175 210  210 175 210  210 175 210  210 175 210  210 175 210  210 175 210  190 150 190  160 130 160  120 90 120  80 60 85  25 20 25
25 20 25  80 60 85  120 90 120  160 130 160  190 150 190  190 150 190  190 150 190  190 150 190  190 150 190  190 150 190  190 150 190  190 150 190  160 130 160  120 90 120  80 60 85  25 20 25
25 20 25  80 60 85  120 90 120  160 130 160  160 130 160  160 130 160  160 130 160  160 130 160  160 130 160  160 130 160  160 130 160  160 130 160  160 130 160  120 90 120  80 60 85  25 20 25
25 20 25  80 60 85  120 90 120  120 90 120  120 90 120  120 90 120  120 90 120  120 90 120  120 90 120  120 90 120  120 90 120  120 90 120  120 90 120  120 90 120  80 60 85  25 20 25
25 20 25  80 60 85  80 60 85  80 60 85  80 60 85  80 60 85  80 60 85  80 60 85  80 60 85  80 60 85  80 60 85  80 60 85  80 60 85  80 60 85  80 60 85  25 20 25
25 20 25  25 20 25  25 20 25  25 20 25  25 20 25  25 20 25  25 20 25  25 20 25  25 20 25  25 20 25  25 20 25  25 20 25  25 20 25  25 20 25  25 20 25  25 20 25
