P3
16 16
255
15 15 10  15 15 10  15 15 10  15 15 10  15 15 10  15 15 10  15 15 10  15 15 10  15 15 10  15 15 10  15 15 10  15 15 10  15 15 10  15 15 10  15 15 10  15 15 10
15 15 10  70 60 20  70 60 20  70 60 20  70 60 20  70 60 20  70 60 20  70 60 20  70 60 20  70 60 20  70 60 20  70 60 20  70 60 20  70 60 20  70 60 20  15 15 10
15 15 10  70 60 20  120 100 40  120 100 40  120 100 40  120 100 40  120 100 40  120 100 40  120 100 40  120 100 40  120 100 40  120 100 40  120 100 40  120 100 40  70 60 20  15 15 10
15 15 10  70 60 20  120 100 40  160 130 60  160 130 60  160 130 60  160 130 60  160 130 60  160 130 60  160 130 60  160 130 60  160 130 60  160 130 60  120 100 40  70 60 20  15 15 10
15 15 10  70 60 20  120 100 40  160 130 60  200 170 90  200 170 90  200 170 90  200 170 90  200 170 90  200 170 90  200 170 90  200 170 90  160 130 60  120 100 40  70 60 20  15 15 10
15 15 10  70 60 20  120 100 40  160 130 60  200 170 90  220 190 110  220 190 110  220 190 110  220 190 110  220 190 110  220 190 110  200 170 90  160 130 60  120 100 40  70 60 20  15 15 10
15 15 10  70 60 20  120 100 40  160 130 60  200 170 90  220 190 110  230 210 130  230 210 130  230 210 130  230 210 130  220 190 110  200 170 90  160 130 60  120 100 40  70 60 20  15 15 10
15 15 10  70 60 20  120 100 40  160 130 60  200 170 90  220 190 110  230 210 130  245 230 150  245 230 150  230 210 130  220 190 110  200 170 90  160 130 60  120 100 40  70 60 20  15 15 10
15 15 10  70 60 20  120 100 40  160 130 60  200 170 90  220 190 110  230 210 130  245 230 150  245 230 150  230 210 130  220 190 110  200 170 90  160 130 60  120 100 40  70 60 20  15 15 10
15 15 10  70 60 20  120 100 40  160 130 60  200 170 90  220 190 110  230 210 130  230 210 130  230 210 130  230 210 130  220 190 110  200 170 90  160 130 60  120 100 40  70 60 20  15 15 10
15 15 10  70 60 20  120 100 40  160 130 60  200 170 90  220 190 110  220 190 110  220 190 110  220 190 110  220 190 110  220 190 110  200 170 90  160 130 60  120 100 40  70 60 20  15 15 10
15 15 10  70 60 20  120 100 40  160 130 60  200 170 90  200 170 90  200 170 90  200 170 90  200 170 90  200 170 90  200 170 90  200 170 90  160 130 60  120 100 40  70 60 20  15 15 10
15 15 10  70 60 20  120 100 40  160 130 60  160 130 60  160 130 60  160 130 60  160 130 60  160 130 60  160 130 60  160 130 60  160 130 60  160 130 60  120 100 40  70 60 20  15 15 10
15 15 10  70 60 20  120 100 40  120 100 40  120 100 40  120 100 40  120 100 40  120 100 40  120 100 40  120 100 40  120 100 40  120 100 40  120 100 40  120 100 40  70 60 20  15 15 10
15 15 10  70 60 20  70 60 20  70 60 20  70 60 20  70 60 20  70 60 20  70 60 20  70 60 20  70 60 20  70 60 20  70 60 20  70 60 20  70 60 20  70 60 20  15 15 10
15 15 10  15 15 10  15 15 10  15 15 10  15 15 10  15 15 10  15 15 10  15 15 10  15 15 10  15 15 10  15 15 10  15 15 10  15 15 10  15 15 10  15 15 10  15 15 10
