P3
16 16
255
10 15 10  10 15 10  10 15 10  10 15 10  10 15 10  10 15 10  10 15 10  10 15 10  10 15 10  10 15 10  10 15 10  10 15 10  10 15 10  10 15 10  10 15 10  10 15 10
10 15 10  40 65 30  40 65 30  40 65 30  40 65 30  40 65 30  40 65 30  40 65 30  40 65 30  40 65 30  40 65 30  40 65 30  40 65 30  40 65 30  40 65 30  10 15 10
10 15 10  40 65 30  70 100 50  70 100 50  70 100 50  70 100 50  70 100 50  70 100 50  70 100 50  70 100 50  70 100 50  70 100 50  70 100 50  70 100 50  40 65 30  10 15 10
10 15 10  40 65 30  70 100 50  90 130 60  90 130 60  90 130 60  90 130 60  90 130 60  90 130 60  90 130 60  90 130 60  90 130 60  90 130 60  70 100 50  40 65 30  10 15 10
10 15 10  40 65 30  70 100 50  90 130 60  120 160 70  120 160 70  120 160 70  120 160 70  120 160 70  120 160 70  120 160 70  120 160 70  90 130 60  70 100 50  40 65 30  10 15 10
10 15 10  40 65 30  70 100 50  90 130 60  120 160 70  140 180 85  140 180 85  140 180 85  140 180 85  140 180 85  140 180 85  120 160 70  90 130 60  70 100 50  40 65 30  10 15 10
10 15 10  40 65 30  70 100 50  90 130 60  120 160 70  140 180 85  150 195 95  150 195 95  150 195 95  150 195 95  140 180 85  120 160 70  90 130 60  70 100 50  40 65 30  10 15 10
10 15 10  40 65 30  70 100 50  90 130 60  120 160 70  140 180 85  150 195 95  165 210 110  165 210 110  150 195 95  140 180 85  120 160 70  90 130 60  70 100 50  40 65 30  10 15 10
10 15 10  40 65 30  70 100 50  90 130 60  120 160 70  140 180 85  150 195 95  165 210 110  165 210 110  150 195 95  140 180 85  120 160 70  90 130 60  70 100 50  40 65 30  10 15 10
10 15 10  40 65 30  70 100 50  90 130 60  120 160 70  140 180 85  150 195 95  150 195 95  150 195 95  150 195 95  140 180 85  120 160 70  90 130 60  70 100 50  40 65 30  10 15 10
10 15 10  40 65 30  70 100 50  90 130 60  120 160 70  140 180 85  140 180 85  140 180 85  140 180 85  140 180 85  140 180 85  120 160 70  90 130 60  70 100 50  40 65 30  10 15 10
10 15 10  40 65 30  70 100 50  90 130 60  120 160 70  120 160 70  120 160 70  120 160 70  120 160 70  120 160 70  120 160 70  120 160 70  90 130 60  70 100 50  40 65 30  10 15 10
10 15 10  40 65 30  70 100 50  90 130 60  90 130 60  90 130 60  90 130 60  90 130 60  90 130 60  90 130 60  90 130 60  90 130 60  90 130 60  70 100 50  40 65 30  10 15 10
10 15 10  40 65 30  70 100 50  70 100 50  70 100 50  70 100 50  70 100 50  70 100 50  70 100 50  70 100 50  70 100 50  70 100 50  70 100 50  70 100 50  40 65 30  10 15 10
10 15 10  40 65 30  40 65 30  40 65 30  40 65 30  40 65 30  40 65 30  40 65 30  40 65 30  40 65 30  40 65 30  40 65 30  40 65 30  40 65 30  40 65 30  10 15 10
10 15 10  10 15 10  10 15 10  10 15 10  10 15 10  10 15 10  10 15 10  10 15 10  10 15 10  10 15 10  10 15 10  10 15 10  10 15 10  10 15 10  10 15 10  10 15 10
