P3
16 16
255
20 20 30  20 20 30  20 20 30  20 20 30  20 20 30  20 20 30  20 20 30  20 20 30  20 20 30  20 20 30  20 20 30  20 20 30  20 20 30  20 20 30  20 20 30  20 20 30
20 20 30  50 50 70  50 50 70  50 50 70  50 50 70  50 50 70  50 50 70  50 50 70  50 50 70  50 50 70  50 50 70  50 50 70  50 50 70  50 50 70  50 50 70  20 20 30
20 20 30  50 50 70  90 90 110  90 90 110  90 90 110  90 90 110  90 90 110  90 90 110  90 90 110  90 90 110  90 90 110  90 90 110  90 90 110  90 90 110  50 50 70  20 20 30
20 20 30  50 50 70  90 90 110  160 80 70  160 80 70  160 80 70  160 80 70  160 80 70  160 80 70  160 80 70  160 80 70  160 80 70  160 80 70  90 90 110  50 50 70  20 20 30
20 20 30  50 50 70  90 90 110  160 80 70  200 110 90  200 110 90  200 110 90  200 110 90  200 110 90  200 110 90  200 110 90  200 110 90  160 80 70  90 90 110  50 50 70  20 20 30
20 20 30  50 50 70  90 90 110  160 80 70  200 110 90  220 140 120  220 140 120  220 140 120  220 140 120  220 140 120  220 140 120  200 110 90  160 80 70  90 90 110  50 50 70  20 20 30
20 20 30  50 50 70  90 90 110  160 80 70  200 110 90  220 140 120  230 160 140  230 160 140  230 160 140  230 160 140  220 140 120  200 110 90  160 80 70  90 90 110  50 50 70  20 20 30
20 20 30  50 50 70  90 90 110  160 80 70  200 110 90  220 140 120  230 160 140  240 200 160  240 200 160  230 160 140  220 140 120  200 110 90  160 80 70  90 90 110  50 50 70  20 20 30
20 20 30  50 50 70  90 90 110  160 80 70  200 110 90  220 140 120  230 160 140  240 200 160  240 200 160  230 160 140  220 140 120  200 110 90  160 80 70  90 90 110  50 50 70  20 20 30
20 20 30  50 50 70  90 90 110  160 80 70  200 110 90  220 140 120  230 160 140  230 160 140  230 160 140  230 160 140  220 140 120  200 110 90  160 80 70  90 90 110  50 50 70  20 20 30
20 20 30  50 50 70  90 90 110  160 80 70  200 110 90  220 140 120  220 140 120  220 140 120  220 140 120  220 140 120  220 140 120  200 110 90  160 80 70  90 90 110  50 50 70  20 20 30
20 20 30  50 50 70  90 90 110  160 80 70  200 110 90  200 110 90  200 110 90  200 110 90  200 110 90  200 110 90  200 110 90  200 110 90  160 80 70  90 90 110  50 50 70  20 20 30
20 20 30  50 50 70  90 90 110  160 80 70  160 80 70  160 80 70  160 80 70  160 80 70  160 80 70  160 80 70  160 80 70  160 80 70  160 80 70  90 90 110  50 50 70  20 20 30
20 20 30  50 50 70  90 90 110  90 90 110  90 90 110  90 90 110  90 90 110  90 90 110  90 90 110  90 90 110  90 90 110  90 90 110  90 90 110  90 90 110  50 50 70  20 20 30
20 20 30  50 50 70  50 50 70  50 50 70  50 50 70  50 50 70  50 50 70  50 50 70  50 50 70  50 50 70  50 50 70  50 50 70  50 50 70  50 50 70  50 50 70  20 20 30
20 20 30  20 20 30  20 20 30  20 20 30  20 20 30  20 20 30  20 20 30  20 20 30  20 20 30  20 20 30  20 20 30  20 20 30  20 20 30  20 20 30  20 20 30  20 20 30
