P3
16 16
255
18 18 30  18 18 30  18 18 30  18 18 30  18 18 30  18 18 30  18 18 30  18 18 30  18 18 30  18 18 30  18 18 30  18 18 30  18 18 30  18 18 30  18 18 30  18 18 30
18 18 30  40 35 70  40 35 70  40 35 70  40 35 70  40 35 70  40 35 70  40 35 70  40 35 70  40 35 70  40 35 70  40 35 70  40 35 70  40 35 70  40 35 70  18 18 30
18 18 30  40 35 70  70 60 110  70 60 110  70 60 110  70 60 110  70 60 110  70 60 110  70 60 110  70 60 110  70 60 110  70 60 110  70 60 110  70 60 110  40 35 70  18 18 30
18 18 30  40 35 70  70 60 110  90 80 140  90 80 140  90 80 140  90 80 140  90 80 140  90 80 140  90 80 140  90 80 140  90 80 140  90 80 140  70 60 110  40 35 70  18 18 30
18 18 30  40 35 70  70 60 110  90 80 140  110 100 160  110 100 160  110 100 160  110 100 160  110 100 160  110 100 160  110 100 160  110 100 160  90 80 140  70 60 110  40 35 70  18 18 30
18 18 30  40 35 70  70 60 110  90 80 140  110 100 160  120 115 175  120 115 175  120 115 175  120 115 175  120 115 175  120 115 175  110 100 160  90 80 140  70 60 110  40 35 70  18 18 30
18 18 30  40 35 70  70 60 110  90 80 140  110 100 160  120 115 175  130 125 190  130 125 190  130 125 190  130 125 190  120 115 175  110 100 160  90 80 140  70 60 110  40 35 70  18 18 30
18 18 30  40 35 70  70 60 110  90 80 140  110 100 160  120 115 175  130 125 190  150 150 210  150 150 210  130 125 190  120 115 175  110 100 160  90 80 140  70 60 110  40 35 70  18 18 30
18 18 30  40 35 70  70 60 110  90 80 140  110 100 160  120 115 175  130 125 190  150 150 210  150 150 210  130 125 190  120 115 175  110 100 160  90 80 140  70 60 110  40 35 70  18 18 30
18 18 30  40 35 70  70 60 110  90 80 140  110 100 160  120 115 175  130 125 190  130 125 190  130 125 190  130 125 190  120 115 175  110 100 160  90 80 140  70 60 110  40 35 70  18 18 30
18 18 30  40 35 70  70 60 110  90 80 140  110 100 160  120 115 175  120 115 175  120 115 175  120 115 175  120 115 175  120 115 175  110 100 160  90 80 140  70 60 110  40 35 70  18 18 30
18 18 30  40 35 70  70 60 110  90 80 140  110 100 160  110 100 160  110 100 160  110 100 160  110 100 160  110 100 160  110 100 160  110 100 160  90 80 140  70 60 110  40 35 70  18 18 30
18 18 30  40 35 70  70 60 110  90 80 140  90 80 140  90 80 140  90 80 140  90 80 140  90 80 140  90 80 140  90 80 140  90 80 140  90 80 140  70 60 110  40 35 70  18 18 30
18 18 30  40 35 70  70 60 110  70 60 110  70 60 110  70 60 110  70 60 110  70 60 110  70 60 110  70 60 110  70 60 110  70 60 110  70 60 110  70 60 110  40 35 70  18 18 30
18 18 30  40 35 70  40 35 70  40 35 70  40 35 70  40 35 70  40 35 70  40 35 70  40 35 70  40 35 70  40 35 70  40 35 70  40 35 70  40 35 70  40 35 70  18 18 30
18 18 30  18 18 30  18 18 30  18 18 30  18 18 30  18 18 30  18 18 30  18 18 30  18 18 30  18 18 30  18 18 30  18 18 30  18 18 30  18 18 30  18 18 30  18 18 30
