P3
16 16
255
40 40 45  40 40 45  40 40 45  40 40 45  40 40 45  40 40 45  40 40 45  40 40 45  40 40 45  40 40 45  40 40 45  40 40 45  40 40 45  40 40 45  40 40 45  40 40 45
40 40 45  60 60 70  60 60 70  60 60 70  60 60 70  60 60 70  60 60 70  60 60 70  60 60 70  60 60 70  60 60 70  60 60 70  60 60 70  60 60 70  60 60 70  40 40 45
40 40 45  60 60 70  90 95 110  90 95 110  90 95 110  90 95 110  90 95 110  90 95 110  90 95 110  90 95 110  90 95 110  90 95 110  90 95 110  90 95 110  60 60 70  40 40 45
40 40 45  60 60 70  90 95 110  140 140 150  140 140 150  140 140 150  140 140 150  140 140 150  140 140 150  140 140 150  140 140 150  140 140 150  140 140 150  90 95 110  60 60 70  40 40 45
40 40 45  60 60 70  90 95 110  140 140 150  180 180 190  180 180 190  180 180 190  180 180 190  180 180 190  180 180 190  180 180 190  180 180 190  140 140 150  90 95 110  60 60 70  40 40 45
40 40 45  60 60 70  90 95 110  140 140 150  180 180 190  200 200 210  200 200 210  200 200 210  200 200 210  200 200 210  200 200 210  180 180 190  140 140 150  90 95 110  60 60 70  40 40 45
40 40 45  60 60 70  90 95 110  140 140 150  180 180 190  200 200 210  210 210 220  210 210 220  210 210 220  210 210 220  200 200 210  180 180 190  140 140 150  90 95 110  60 60 70  40 40 45
40 40 45  60 60 70  90 95 110  140 140 150  180 180 190  200 200 210  210 210 220  230 170 120  230 170 120  210 210 220  200 200 210  180 180 190  140 140 150  90 95 110  60 60 70  40 40 45
40 40 45  60 60 70  90 95 110  140 140 150  180 180 190  200 200 210  210 210 220  230 170 120  230 170 120  210 210 220  200 200 210  180 180 190  140 140 150  90 95 110  60 60 70  40 40 45
40 40 45  60 60 70  90 95 110  140 140 150  180 180 190  200 200 210  210 210 220  210 210 220  210 210 220  210 210 220  200 200 210  180 180 190  140 140 150  90 95 110  60 60 70  40 40 45
40 40 45  60 60 70  90 95 110  140 140 150  180 180 190  200 200 210  200 200 210  200 200 210  200 200 210  200 200 210  200 200 210  180 180 190  140 140 150  90 95 110  60 60 70  40 40 45
40 40 45  60 60 70  90 95 110  140 140 150  180 180 190  180 180 190  180 180 190  180 180 190  180 180 190  180 180 190  180 180 190  180 180 190  140 140 150  90 95 110  60 60 70  40 40 45
40 40 45  60 60 70  90 95 110  140 140 150  140 140 150  140 140 150  140 140 150  140 140 150  140 140 150  140 140 150  140 140 150  140 140 150  140 140 150  90 95 110  60 60 70  40 40 45
40 40 45  60 60 70  90 95 110  90 95 110  90 95 110  90 95 110  90 95 110  90 95 110  90 95 110  90 95 110  90 95 110  90 95 110  90 95 110  90 95 110  60 60 70  40 40 45
40 40 45  60 60 70  60 60 70  60 60 70  60 60 70  60 60 70  60 60 70  60 60 70  60 60 70  60 60 70  60 60 70  60 60 70  60 60 70  60 60 70  60 60 70  40 40 45
40 40 45  40 40 45  40 40 45  40 40 45  40 40 45  40 40 45  40 40 45  40 40 45  40 40 45  40 40 45  40 40 45  40 40 45  40 40 45  40 40 45  40 40 45  40 40 45
