P3
16 16
255
15 20 20  15 20 20  15 20 20  15 20 20  15 20 20  15 20 20  15 20 20  15 20 20  15 20 20  15 20 20  15 20 20  15 20 20  15 20 20  15 20 20  15 20 20  15 20 20
15 20 20  30 60 50  30 60 50  30 60 50  30 60 50  30 60 50  30 60 50  30 60 50  30 60 50  30 60 50  30 60 50  30 60 50  30 60 50  30 60 50  30 60 50  15 20 20
15 20 20  30 60 50  60 110 90  60 110 90  60 110 90  60 110 90  60 110 90  60 110 90  60 110 90  60 110 90  60 110 90  60 110 90  60 110 90  60 110 90  30 60 50  15 20 20
15 20 20  30 60 50  60 110 90  80 150 120  80 150 120  80 150 120  80 150 120  80 150 120  80 150 120  80 150 120  80 150 120  80 150 120  80 150 120  60 110 90  30 60 50  15 20 20
15 20 20  30 60 50  60 110 90  80 150 120  95 180 140  95 180 140  95 180 140  95 180 140  95 180 140  95 180 140  95 180 140  95 180 140  80 150 120  60 110 90  30 60 50  15 20 20
15 20 20  30 60 50  60 110 90  80 150 120  95 180 140  105 200 150  105 200 150  105 200 150  105 200 150  105 200 150  105 200 150  95 180 140  80 150 120  60 110 90  30 60 50  15 20 20
15 20 20  30 60 50  60 110 90  80 150 120  95 180 140  105 200 150  110 210 155  110 210 155  110 210 155  110 210 155  105 200 150  95 180 140  80 150 120  60 110 90  30 60 50  15 20 20
15 20 20  30 60 50  60 110 90  80 150 120  95 180 140  105 200 150  110 210 155  140 220 170  140 220 170  110 210 155  105 200 150  95 180 140  80 150 120  60 110 90  30 60 50  15 20 20
15 20 20  30 60 50  60 110 90  80 150 120  95 180 140  105 200 150  110 210 155  140 220 170  140 220 170  110 210 155  105 200 150  95 180 140  80 150 120  60 110 90  30 60 50  15 20 20
15 20 20  30 60 50  60 110 90  80 150 120  95 180 140  105 200 150  110 210 155  110 210 155  110 210 155  110 210 155  105 200 150  95 180 140  80 150 120  60 110 90  30 60 50  15 20 20
15 20 20  30 60 50  60 110 90  80 150 120  95 180 140  105 200 150  105 200 150  105 200 150  105 200 150  105 200 150  105 200 150  95 180 140  80 150 120  60 110 90  30 60 50  15 20 20
15 20 20  30 60 50  60 110 90  80 150 120  95 180 140  95 180 140  95 180 140  95 180 140  95 180 140  95 180 140  95 180 140  95 180 140  80 150 120  60 110 90  30 60 50  15 20 20
15 20 20  30 60 50  60 110 90  80 150 120  80 150 120  80 150 120  80 150 120  80 150 120  80 150 120  80 150 120  80 150 120  80 150 120  80 150 120  60 110 90  30 60 50  15 20 20
15 20 20  30 60 50  60 110 90  60 110 90  60 110 90  60 110 90  60 110 90  60 110 90  60 110 90  60 110 90  60 110 90  60 110 90  60 110 90  60 110 90  30 60 50  15 20 20
15 20 20  30 60 50  30 60 50  30 60 50  30 60 50  30 60 50  30 60 50  30 60 50  30 60 50  30 60 50  30 60 50  30 60 50  30 60 50  30 60 50  30 60 50  15 20 20
15 20 20  15 20 20  15 20 20  15 20 20  15 20 20  15 20 20  15 20 20  15 20 20  15 20 20  15 20 20  15 20 20  15 20 20  15 20 20  15 20 20  15 20 20  15 20 20
